# xmcd
#
# Track frame offsets:
#  183
#  10918
#  19893
#  32720
#  45655
#  53690
#  65453
#  77758
#  91565
#  103838
#  115543
#  126380
#  137668
#  150730
#  163045
#  174868
#  187318
#  198680
#  210790
#  224008
#  236483
#  249500
#  260415
#  271213
#
# Disc length: 3859 seconds
#
# Revision: 1
# Processed by: cddbd v1.5.1PL2 Copyright (c) Steve Scherf et al.
# Submitted via: Collectorz.com_Music_Collector 6.11
#
DISCID=4b0f1118
DTITLE=Various Artist - The Sun Blues Archives Rare And Unissued Tracks: From The Sun Blues Years, Vol. 5 - Back Country Blues
DYEAR=1900
DGENRE=Blues
TTITLE0=William 'Talking Boy' Stewart - They Call Me Talking Boy #1
TTITLE1=William 'Talking Boy' Stewart - Country Farm Blues
TTITLE2=William 'Talking Boy' Stewart - Rattlesnake Mama
TTITLE3=William 'Talking Boy' Stewart - I Love My Baby
TTITLE4=William 'Talking Boy' Stewart - Hey Gal #1
TTITLE5=William 'Talking Boy' Stewart - Hey Gal #2
TTITLE6=William 'Talking Boy' Stewart - Black Snake
TTITLE7=William 'Talking Boy' Stewart - Forty Four Blues
TTITLE8=William 'Talking Boy' Stewart - Talking Boy
TTITLE9=Doctor Ross - Country Clown
TTITLE10=Doctor Ross - Cat Squirrel
TTITLE11=Doctor Ross - Shake-A-My Hand
TTITLE12=Doctor Ross - That Ain't Right
TTITLE13=Doctor Ross - Shake 'em On Down
TTITLE14=Doctor Ross - My Be Bop Gal
TTITLE15=Doctor Ross - Terra Mae
TTITLE16=Doctor Ross - Turkey Leg Woman
TTITLE17=Doctor Ross - Feel So Bad
TTITLE18=Doctor Ross - Chicago Breakdown
TTITLE19=Doctor Ross - Jukebox Boogie
TTITLE20=Doctor Ross - Boogie Disease
TTITLE21=Doctor Ross - Dr. Ross Boogie
TTITLE22=Doctor Ross - Downtown Boogie
TTITLE23=Doctor Ross - Industrial Boogie
EXTD=
EXTT0=
EXTT1=
EXTT2=
EXTT3=
EXTT4=
EXTT5=
EXTT6=
EXTT7=
EXTT8=
EXTT9=
EXTT10=
EXTT11=
EXTT12=
EXTT13=
EXTT14=
EXTT15=
EXTT16=
EXTT17=
EXTT18=
EXTT19=
EXTT20=
EXTT21=
EXTT22=
EXTT23=
PLAYORDER=
